<svg id="Layer_1" data-name="Layer 1" xmlns="http://www.w3.org/2000/svg" xmlns:xlink="http://www.w3.org/1999/xlink" viewBox="0 0 100 100"><defs><style>.cls-1{fill:url(#linear-gradient);}.cls-2{fill:url(#linear-gradient-2);}.cls-3{fill:url(#linear-gradient-3);}.cls-4{fill:url(#linear-gradient-4);}.cls-5{fill:url(#linear-gradient-5);}.cls-6{fill:url(#linear-gradient-6);}.cls-7{fill:url(#linear-gradient-7);}.cls-8{fill:url(#linear-gradient-8);}.cls-9{fill:url(#linear-gradient-9);}.cls-10{fill:url(#linear-gradient-10);}.cls-11{fill:url(#linear-gradient-11);}.cls-12{fill:url(#linear-gradient-12);}.cls-13{fill:url(#linear-gradient-13);}.cls-14{fill:url(#linear-gradient-14);}.cls-15{fill:url(#linear-gradient-15);}.cls-16{fill:url(#linear-gradient-16);}.cls-17{fill:url(#linear-gradient-17);}.cls-18{fill:url(#linear-gradient-18);}.cls-19{fill:url(#linear-gradient-19);}.cls-20{fill:url(#linear-gradient-20);}.cls-21{fill:url(#linear-gradient-21);}.cls-22{fill:url(#linear-gradient-22);}.cls-23{fill:url(#linear-gradient-23);}.cls-24{fill:url(#linear-gradient-24);}.cls-25{fill:url(#linear-gradient-25);}.cls-26{fill:url(#linear-gradient-26);}.cls-27{fill:url(#linear-gradient-27);}.cls-28{fill:url(#linear-gradient-28);}.cls-29{fill:url(#linear-gradient-29);}.cls-30{fill:url(#linear-gradient-57);}</style><linearGradient id="linear-gradient" x1="7.27" y1="41.22" x2="64.35" y2="41.22" gradientUnits="userSpaceOnUse"><stop offset="0" stop-color="#034082"/><stop offset="0.3" stop-color="#98e0f9"/><stop offset="1" stop-color="#1957a5"/></linearGradient><linearGradient id="linear-gradient-2" x1="29.05" y1="79.83" x2="81.24" y2="79.83" xlink:href="#linear-gradient"/><linearGradient id="linear-gradient-3" x1="9.11" y1="89.83" x2="29.9" y2="89.83" xlink:href="#linear-gradient"/><linearGradient id="linear-gradient-4" x1="63.8" y1="18.47" x2="91.76" y2="18.47" xlink:href="#linear-gradient"/><linearGradient id="linear-gradient-5" x1="83.96" y1="16.36" x2="86.1" y2="16.36" xlink:href="#linear-gradient"/><linearGradient id="linear-gradient-6" x1="83.33" y1="13.8" x2="83.98" y2="13.8" xlink:href="#linear-gradient"/><linearGradient id="linear-gradient-7" x1="82.01" y1="15.04" x2="83.08" y2="15.04" xlink:href="#linear-gradient"/><linearGradient id="linear-gradient-8" x1="65.67" y1="28.72" x2="67.61" y2="28.72" xlink:href="#linear-gradient"/><linearGradient id="linear-gradient-9" x1="68.66" y1="28.81" x2="70.31" y2="28.81" xlink:href="#linear-gradient"/><linearGradient id="linear-gradient-10" x1="68.26" y1="26.35" x2="69.5" y2="26.35" xlink:href="#linear-gradient"/><linearGradient id="linear-gradient-11" x1="86.51" y1="34.5" x2="98.11" y2="34.5" xlink:href="#linear-gradient"/><linearGradient id="linear-gradient-12" x1="74.93" y1="41.82" x2="86.82" y2="41.82" xlink:href="#linear-gradient"/><linearGradient id="linear-gradient-13" x1="77.27" y1="58.3" x2="88.68" y2="58.3" xlink:href="#linear-gradient"/><linearGradient id="linear-gradient-14" x1="89.06" y1="51.74" x2="96.71" y2="51.74" xlink:href="#linear-gradient"/><linearGradient id="linear-gradient-15" x1="33.82" y1="94.6" x2="36.13" y2="94.6" xlink:href="#linear-gradient"/><linearGradient id="linear-gradient-16" x1="32.42" y1="91.35" x2="33.58" y2="91.35" xlink:href="#linear-gradient"/><linearGradient id="linear-gradient-17" x1="31.06" y1="93.62" x2="32.95" y2="93.62" xlink:href="#linear-gradient"/><linearGradient id="linear-gradient-18" x1="8.54" y1="91.4" x2="9.85" y2="91.4" xlink:href="#linear-gradient"/><linearGradient id="linear-gradient-19" x1="7.43" y1="89.27" x2="8.38" y2="89.27" xlink:href="#linear-gradient"/><linearGradient id="linear-gradient-20" x1="6.37" y1="90.96" x2="7.83" y2="90.96" xlink:href="#linear-gradient"/><linearGradient id="linear-gradient-21" x1="2.53" y1="81.24" x2="7.07" y2="81.24" xlink:href="#linear-gradient"/><linearGradient id="linear-gradient-22" x1="4.02" y1="68.45" x2="15.14" y2="68.45" xlink:href="#linear-gradient"/><linearGradient id="linear-gradient-23" x1="13.43" y1="78.87" x2="14.32" y2="78.87" xlink:href="#linear-gradient"/><linearGradient id="linear-gradient-24" x1="13.88" y1="75.77" x2="15.25" y2="75.77" xlink:href="#linear-gradient"/><linearGradient id="linear-gradient-25" x1="10.04" y1="75.77" x2="13.09" y2="75.77" xlink:href="#linear-gradient"/><linearGradient id="linear-gradient-26" x1="30.22" y1="62.8" x2="89.94" y2="62.8" xlink:href="#linear-gradient"/><linearGradient id="linear-gradient-27" x1="1.89" y1="50.22" x2="63.55" y2="50.22" xlink:href="#linear-gradient"/><linearGradient id="linear-gradient-28" x1="21.38" y1="56.09" x2="69.71" y2="56.09" xlink:href="#linear-gradient"/><linearGradient id="linear-gradient-29" x1="15.68" y1="22.97" x2="78.02" y2="85.31" gradientUnits="userSpaceOnUse"><stop offset="0" stop-color="#034082"/><stop offset="0.04" stop-color="#114f8d"/><stop offset="0.13" stop-color="#3777ab"/><stop offset="0.24" stop-color="#73b8db"/><stop offset="0.31" stop-color="#98e0f9"/><stop offset="0.35" stop-color="#8ad1f0"/><stop offset="0.5" stop-color="#62a5d5"/><stop offset="0.64" stop-color="#4283c0"/><stop offset="0.78" stop-color="#2b6bb1"/><stop offset="0.9" stop-color="#1e5ca8"/><stop offset="1" stop-color="#1957a5"/></linearGradient><linearGradient id="linear-gradient-57" x1="15.68" y1="22.97" x2="78.02" y2="85.31" gradientUnits="userSpaceOnUse"><stop offset="0" stop-color="#034082"/><stop offset="0.08" stop-color="#054384"/><stop offset="0.13" stop-color="#0d4b8a"/><stop offset="0.17" stop-color="#1b5a95"/><stop offset="0.2" stop-color="#2e6ea4"/><stop offset="0.23" stop-color="#4789b8"/><stop offset="0.26" stop-color="#65a9d0"/><stop offset="0.29" stop-color="#88cfed"/><stop offset="0.3" stop-color="#98e0f9"/><stop offset="0.32" stop-color="#84caec"/><stop offset="0.38" stop-color="#5699cd"/><stop offset="0.43" stop-color="#3575b7"/><stop offset="0.47" stop-color="#205faa"/><stop offset="0.5" stop-color="#1957a5"/><stop offset="0.55" stop-color="#286fb6"/><stop offset="0.64" stop-color="#459cd5"/><stop offset="0.72" stop-color="#56b9e9"/><stop offset="0.76" stop-color="#5dc3f0"/><stop offset="0.78" stop-color="#56b7e8"/><stop offset="0.82" stop-color="#4095d0"/><stop offset="0.86" stop-color="#2f7abd"/><stop offset="0.91" stop-color="#2366b0"/><stop offset="0.95" stop-color="#1b5ba8"/><stop offset="1" stop-color="#1957a5"/></linearGradient></defs><path class="cls-1" d="M64,21.07A38.13,38.13,0,0,0,9.14,66.13l.38.11A37.79,37.79,0,0,1,64.35,21.63C64.24,21.44,64.13,21.26,64,21.07Z"/><path class="cls-2" d="M81,67.2a37.78,37.78,0,0,1-51.9,21.21c.06.15.12.29.17.44a38.09,38.09,0,0,0,52-21.51Z"/><path class="cls-3" d="M29.76,94.74a7.64,7.64,0,0,1-.17.77A5.58,5.58,0,0,1,27,99.06a4.27,4.27,0,0,1-4.91-.83,1.74,1.74,0,0,0,1.24.44,1.55,1.55,0,0,0,1.44-1.35,2,2,0,0,0-.71-1.57c-1.31-1.28-3.31-1.48-5.14-1.51s-3.78,0-5.35-.91a4.64,4.64,0,0,1-1.76-6,7.29,7.29,0,0,1-1.73,1.29,1,1,0,0,1-1,.11,3.49,3.49,0,0,0,1.6-2.27,8.76,8.76,0,0,0-.05-5.07c.17.45,2.1,5.38,9.48,8.87-3.63-2.66-6.51-6.44-9.16-10.08h0a5.21,5.21,0,0,0,3.48,2.33c1.63.13,3.27-.2,4.91-.23a6,6,0,0,1,4.53,1.5,5.64,5.64,0,0,0-3.37.27A5.68,5.68,0,0,0,18,86.37h0A6.76,6.76,0,0,1,23.74,85a7.74,7.74,0,0,1,5,3.65A9.08,9.08,0,0,1,29.76,94.74Z"/><path class="cls-4" d="M87.16,30.75l.08.07C86.1,32.16,85.7,34.25,85.39,36h0a25.73,25.73,0,0,0-8.6-11.85l0,0-.09-.1,0,0a55.84,55.84,0,0,1,7.93,12.36L84.32,36a29.7,29.7,0,0,0-4.76-5.52,9.93,9.93,0,0,0-2.49-1.89,4.24,4.24,0,0,0-3-.36,2.78,2.78,0,0,0-2,2.09l-.11,0a4.87,4.87,0,0,1,1.79-5.86h0c-2.57.43-5.43.2-7.42-1.49A7.93,7.93,0,0,1,63.8,17a12.35,12.35,0,0,1,.14-2,23.84,23.84,0,0,1,1.21-4.43,52.49,52.49,0,0,0,2.11-6.27c.29-1.28.37-2.8-.5-3.76L66.84.5a10.51,10.51,0,0,1,7.25,7.55,23.53,23.53,0,0,1,.43,4.44,14.92,14.92,0,0,0,.67,4.41,5.73,5.73,0,0,0,2.69,3.29A10.22,10.22,0,0,1,78,10.94a4.94,4.94,0,0,0,1,3.33,15.43,15.43,0,0,0,3.06,2.92,11.14,11.14,0,0,1,2.89,3.08,4.37,4.37,0,0,1,.43,3.45,4.88,4.88,0,0,1,6.39.52,7.7,7.7,0,0,0-5.76,3C84.67,29,84.58,32,85,34.14a8.11,8.11,0,0,1,.42-2.5C85.67,31,86.51,30.83,87.16,30.75Z"/><path class="cls-5" d="M85,15.29a1.06,1.06,0,0,1,1.09,1,1.07,1.07,0,1,1-1.09-1Z"/><path class="cls-6" d="M83.65,13.48a.33.33,0,1,1-.32.33A.34.34,0,0,1,83.65,13.48Z"/><path class="cls-7" d="M82.54,14.51a.54.54,0,0,1,.54.52.54.54,0,0,1-1.07,0A.54.54,0,0,1,82.54,14.51Z"/><path class="cls-8" d="M66.62,27.75a1,1,0,1,1-1,1A1,1,0,0,1,66.62,27.75Z"/><circle class="cls-9" cx="69.49" cy="28.81" r="0.83"/><path class="cls-10" d="M68.87,25.73a.63.63,0,0,1,.63.61.62.62,0,0,1-1.24,0A.63.63,0,0,1,68.87,25.73Z"/><path class="cls-11" d="M91,31.54a10.66,10.66,0,0,0-2.66,10.55L86.9,37.55a4,4,0,0,1-.24-2.66c.32-.86,1.18-1.4,1.63-2.2.59-1,.38-2.38.82-3.5A4.09,4.09,0,0,1,93.66,27a7.75,7.75,0,0,1,4.45,3l0,.05a2.05,2.05,0,0,0-3,1.42,4.94,4.94,0,0,0,.31,2.17,2.76,2.76,0,0,1-.09,2.15c-.54.87-1.73,1-2.71,1.27a5.55,5.55,0,0,0-3.52,3.27,1.72,1.72,0,0,0-.07.21,14.76,14.76,0,0,1,2.13-8.89Z"/><path class="cls-12" d="M86.69,43.81A11.78,11.78,0,0,1,86.75,47a5.19,5.19,0,0,0-4-3.94c-.8-.15-1.63-.1-2.44-.22a2.86,2.86,0,0,1-2.08-1.16c-.32-.54-.38-1.25-.84-1.68a1.61,1.61,0,0,0-1.28-.37,4.43,4.43,0,0,0-1.18.34,4,4,0,0,1,7.13-1.63,9.82,9.82,0,0,0,1.1,1.5,11.48,11.48,0,0,0,1.57.88A4.61,4.61,0,0,1,86.69,43.81Z"/><path class="cls-13" d="M81.16,64.94a2.66,2.66,0,0,1,5-.41h0A3.42,3.42,0,0,0,84.82,62c-.81-.69-1.79-1.17-2.61-1.87a3.34,3.34,0,0,1-1.36-2.67,6.44,6.44,0,0,0,2.63.47,4.37,4.37,0,0,1,2.79.86h0c-.25-1.29-1.59-2.05-2.84-2.45s-2.64-.69-3.53-1.66a4.9,4.9,0,0,1-.93-3.7,24.4,24.4,0,0,0,.3-3.9,3.5,3.5,0,0,0-2-3.09v-.22a11.41,11.41,0,0,1,10.17,6.5,16.63,16.63,0,0,1,1.23,7.34,32.14,32.14,0,0,1-1.83,9.85h0a19.67,19.67,0,0,1-2.59,5.48,4.09,4.09,0,0,1-.41-2.36c.07-.84.25-1.66.29-2.49a3.57,3.57,0,0,0-.64-2.37,1.88,1.88,0,0,0-2.23-.61Z"/><path class="cls-14" d="M96.68,59.7a1.18,1.18,0,0,1-.35,1.18l0-.07a2.22,2.22,0,0,0-2.43-.87,5.14,5.14,0,0,0-3.19,2.35,12.27,12.27,0,0,0-1.6,3.17h0a39.16,39.16,0,0,0,.15-20.33,14.92,14.92,0,0,1,2.51,4.64l.08,0a10.33,10.33,0,0,1,4-11.71h0c-.85,2-.41,4.33,0,6.5s.66,4.62-.53,6.51c-.92,1.47-2.66,2.47-3,4.17l.21,0a4.11,4.11,0,0,1,3.49-1.86v0a12.85,12.85,0,0,0-3,4.31l.07,0a2.74,2.74,0,0,1,2.34.1A2.71,2.71,0,0,1,96.68,59.7Z"/><path class="cls-15" d="M35,93.44a1.16,1.16,0,1,1,0,2.31,1.16,1.16,0,0,1,0-2.31Z"/><path class="cls-16" d="M33,90.77a.57.57,0,0,1,.58.58.58.58,0,1,1-1.16,0A.57.57,0,0,1,33,90.77Z"/><path class="cls-17" d="M32,92.68a.94.94,0,1,1-.95.94A.94.94,0,0,1,32,92.68Z"/><circle class="cls-18" cx="9.19" cy="91.4" r="0.66"/><path class="cls-19" d="M7.91,88.8a.48.48,0,0,1,0,1,.48.48,0,1,1,0-1Z"/><path class="cls-20" d="M7.1,90.23a.73.73,0,1,1-.73.73A.73.73,0,0,1,7.1,90.23Z"/><path class="cls-21" d="M7,79.78a9.06,9.06,0,0,1-.73,4.78,4.89,4.89,0,0,1-3.76,2.8h0a1.88,1.88,0,0,0,.89-2.09c-.13-.81-.54-1.55-.7-2.36a4,4,0,0,1,.6-3c.59-.88,1.52-1.5,2.09-2.4A3.78,3.78,0,0,0,6,75.11,16.25,16.25,0,0,1,7,79.78Z"/><path class="cls-22" d="M4.1,64.18a3.12,3.12,0,0,0,2.12,2.1c1,.38,2.16.45,3.2.81a6.31,6.31,0,0,1,3.08,2.3c.39.55.69,1.16,1.08,1.71a3,3,0,0,0,1.56,1.18A7.6,7.6,0,0,1,7.82,71,11,11,0,0,1,4,64.19Z"/><path class="cls-23" d="M13.88,78.42a.45.45,0,1,1-.45.44A.44.44,0,0,1,13.88,78.42Z"/><circle class="cls-24" cx="14.56" cy="75.77" r="0.68"/><circle class="cls-25" cx="11.57" cy="75.77" r="1.52"/><path class="cls-26" d="M30.22,95.76a44.55,44.55,0,0,0,28.22.69,43.55,43.55,0,0,0,22.7-16.51,43,43,0,0,0,3.65-6.12,44,44,0,0,0,2.58-6.65,44,44,0,0,0-8.31-40.5,43.08,43.08,0,0,1,7.65,12.22,43.54,43.54,0,0,1-4.77,41.62,42.37,42.37,0,0,1-4.7,5.57,45.38,45.38,0,0,1-5.55,4.72,42.91,42.91,0,0,1-13,6.37,42.39,42.39,0,0,1-7.12,1.44,42.56,42.56,0,0,1-21.32-2.85Z"/><path class="cls-27" d="M63.55,15.13a44.32,44.32,0,0,0-30.79-1.28A43.58,43.58,0,0,0,8.86,33,42.56,42.56,0,0,0,3.41,47.58a45.19,45.19,0,0,0-.67,7.79c0,1.31.07,2.61.19,3.91s.29,2.6.52,3.88A42.79,42.79,0,0,0,9,77.77a40.49,40.49,0,0,0,9.66,11.5,35.6,35.6,0,0,1-5.24-5A42.7,42.7,0,0,1,8.57,78,43.16,43.16,0,0,1,2.71,63.3a42.06,42.06,0,0,1-.82-7.92,46,46,0,0,1,.64-8A43.58,43.58,0,0,1,8,32.51,44.11,44.11,0,0,1,32.53,13.13a44.58,44.58,0,0,1,15.73-1.88A43.16,43.16,0,0,1,63.55,15.13Z"/><path class="cls-28" d="M66.49,35.91a2.24,2.24,0,0,0-1.39,1.41,11.4,11.4,0,0,0-.36,3.38V71.16a11.31,11.31,0,0,0,.36,3.38A2.19,2.19,0,0,0,66.49,76a12.27,12.27,0,0,0,3.22.5v1.22q-2.82-.18-7.8-.18-5.28,0-7.86.18V76.45a12.27,12.27,0,0,0,3.22-.5,2.19,2.19,0,0,0,1.39-1.41A11.31,11.31,0,0,0,59,71.16V38.25L44.22,78h-1L27.77,38.12V70.55a12,12,0,0,0,.39,3.56,2.79,2.79,0,0,0,1.57,1.69,10.89,10.89,0,0,0,3.62.65v1.22q-2.21-.18-6.26-.18c-2.46,0-4.36.06-5.71.18V76.45a8.65,8.65,0,0,0,3.19-.65A2.69,2.69,0,0,0,26,74.08a12.57,12.57,0,0,0,.37-3.53V40.7A11,11,0,0,0,26,37.32a2.2,2.2,0,0,0-1.38-1.41,12.36,12.36,0,0,0-3.22-.49V34.19c1.35.13,3.25.19,5.71.19,2.13,0,3.87-.06,5.22-.19L45.82,69.75,59,34.38h2.89q5,0,7.8-.19v1.23A12.36,12.36,0,0,0,66.49,35.91Z"/><path class="cls-29" d="M64,21.07A38.13,38.13,0,0,0,9.14,66.13l.38.11A37.79,37.79,0,0,1,64.35,21.63C64.24,21.44,64.13,21.26,64,21.07Z"/><path class="cls-29" d="M81,67.2a37.78,37.78,0,0,1-51.9,21.21c.06.15.12.29.17.44a38.09,38.09,0,0,0,52-21.51Z"/><path class="cls-29" d="M29.76,94.74a7.64,7.64,0,0,1-.17.77A5.58,5.58,0,0,1,27,99.06a4.27,4.27,0,0,1-4.91-.83,1.74,1.74,0,0,0,1.24.44,1.55,1.55,0,0,0,1.44-1.35,2,2,0,0,0-.71-1.57c-1.31-1.28-3.31-1.48-5.14-1.51s-3.78,0-5.35-.91a4.64,4.64,0,0,1-1.76-6,7.29,7.29,0,0,1-1.73,1.29,1,1,0,0,1-1,.11,3.49,3.49,0,0,0,1.6-2.27,8.76,8.76,0,0,0-.05-5.07c.17.45,2.1,5.38,9.48,8.87-3.63-2.66-6.51-6.44-9.16-10.08h0a5.21,5.21,0,0,0,3.48,2.33c1.63.13,3.27-.2,4.91-.23a6,6,0,0,1,4.53,1.5,5.64,5.64,0,0,0-3.37.27A5.68,5.68,0,0,0,18,86.37h0A6.76,6.76,0,0,1,23.74,85a7.74,7.74,0,0,1,5,3.65A9.08,9.08,0,0,1,29.76,94.74Z"/><path class="cls-29" d="M87.16,30.75l.08.07C86.1,32.16,85.7,34.25,85.39,36h0a25.73,25.73,0,0,0-8.6-11.85l0,0-.09-.1,0,0a55.84,55.84,0,0,1,7.93,12.36L84.32,36a29.7,29.7,0,0,0-4.76-5.52,9.93,9.93,0,0,0-2.49-1.89,4.24,4.24,0,0,0-3-.36,2.78,2.78,0,0,0-2,2.09l-.11,0a4.87,4.87,0,0,1,1.79-5.86h0c-2.57.43-5.43.2-7.42-1.49A7.93,7.93,0,0,1,63.8,17a12.35,12.35,0,0,1,.14-2,23.84,23.84,0,0,1,1.21-4.43,52.49,52.49,0,0,0,2.11-6.27c.29-1.28.37-2.8-.5-3.76L66.84.5a10.51,10.51,0,0,1,7.25,7.55,23.53,23.53,0,0,1,.43,4.44,14.92,14.92,0,0,0,.67,4.41,5.73,5.73,0,0,0,2.69,3.29A10.22,10.22,0,0,1,78,10.94a4.94,4.94,0,0,0,1,3.33,15.43,15.43,0,0,0,3.06,2.92,11.14,11.14,0,0,1,2.89,3.08,4.37,4.37,0,0,1,.43,3.45,4.88,4.88,0,0,1,6.39.52,7.7,7.7,0,0,0-5.76,3C84.67,29,84.58,32,85,34.14a8.11,8.11,0,0,1,.42-2.5C85.67,31,86.51,30.83,87.16,30.75Z"/><path class="cls-29" d="M85,15.29a1.06,1.06,0,0,1,1.09,1,1.07,1.07,0,1,1-1.09-1Z"/><path class="cls-29" d="M83.65,13.48a.33.33,0,1,1-.32.33A.34.34,0,0,1,83.65,13.48Z"/><path class="cls-29" d="M82.54,14.51a.54.54,0,0,1,.54.52.54.54,0,0,1-1.07,0A.54.54,0,0,1,82.54,14.51Z"/><path class="cls-29" d="M66.62,27.75a1,1,0,1,1-1,1A1,1,0,0,1,66.62,27.75Z"/><circle class="cls-29" cx="69.49" cy="28.81" r="0.83"/><path class="cls-29" d="M68.87,25.73a.63.63,0,0,1,.63.61.62.62,0,0,1-1.24,0A.63.63,0,0,1,68.87,25.73Z"/><path class="cls-29" d="M91,31.54a10.66,10.66,0,0,0-2.66,10.55L86.9,37.55a4,4,0,0,1-.24-2.66c.32-.86,1.18-1.4,1.63-2.2.59-1,.38-2.38.82-3.5A4.09,4.09,0,0,1,93.66,27a7.75,7.75,0,0,1,4.45,3l0,.05a2.05,2.05,0,0,0-3,1.42,4.94,4.94,0,0,0,.31,2.17,2.76,2.76,0,0,1-.09,2.15c-.54.87-1.73,1-2.71,1.27a5.55,5.55,0,0,0-3.52,3.27,1.72,1.72,0,0,0-.07.21,14.76,14.76,0,0,1,2.13-8.89Z"/><path class="cls-29" d="M86.69,43.81A11.78,11.78,0,0,1,86.75,47a5.19,5.19,0,0,0-4-3.94c-.8-.15-1.63-.1-2.44-.22a2.86,2.86,0,0,1-2.08-1.16c-.32-.54-.38-1.25-.84-1.68a1.61,1.61,0,0,0-1.28-.37,4.43,4.43,0,0,0-1.18.34,4,4,0,0,1,7.13-1.63,9.82,9.82,0,0,0,1.1,1.5,11.48,11.48,0,0,0,1.57.88A4.61,4.61,0,0,1,86.69,43.81Z"/><path class="cls-29" d="M81.16,64.94a2.66,2.66,0,0,1,5-.41h0A3.42,3.42,0,0,0,84.82,62c-.81-.69-1.79-1.17-2.61-1.87a3.34,3.34,0,0,1-1.36-2.67,6.44,6.44,0,0,0,2.63.47,4.37,4.37,0,0,1,2.79.86h0c-.25-1.29-1.59-2.05-2.84-2.45s-2.64-.69-3.53-1.66a4.9,4.9,0,0,1-.93-3.7,24.4,24.4,0,0,0,.3-3.9,3.5,3.5,0,0,0-2-3.09v-.22a11.41,11.41,0,0,1,10.17,6.5,16.63,16.63,0,0,1,1.23,7.34,32.14,32.14,0,0,1-1.83,9.85h0a19.67,19.67,0,0,1-2.59,5.48,4.09,4.09,0,0,1-.41-2.36c.07-.84.25-1.66.29-2.49a3.57,3.57,0,0,0-.64-2.37,1.88,1.88,0,0,0-2.23-.61Z"/><path class="cls-29" d="M96.68,59.7a1.18,1.18,0,0,1-.35,1.18l0-.07a2.22,2.22,0,0,0-2.43-.87,5.14,5.14,0,0,0-3.19,2.35,12.27,12.27,0,0,0-1.6,3.17h0a39.16,39.16,0,0,0,.15-20.33,14.92,14.92,0,0,1,2.51,4.64l.08,0a10.33,10.33,0,0,1,4-11.71h0c-.85,2-.41,4.33,0,6.5s.66,4.62-.53,6.51c-.92,1.47-2.66,2.47-3,4.17l.21,0a4.11,4.11,0,0,1,3.49-1.86v0a12.85,12.85,0,0,0-3,4.31l.07,0a2.74,2.74,0,0,1,2.34.1A2.71,2.71,0,0,1,96.68,59.7Z"/><path class="cls-29" d="M35,93.44a1.16,1.16,0,1,1,0,2.31,1.16,1.16,0,0,1,0-2.31Z"/><path class="cls-29" d="M33,90.77a.57.57,0,0,1,.58.58.58.58,0,1,1-1.16,0A.57.57,0,0,1,33,90.77Z"/><path class="cls-29" d="M32,92.68a.94.94,0,1,1-.95.94A.94.94,0,0,1,32,92.68Z"/><circle class="cls-29" cx="9.19" cy="91.4" r="0.66"/><path class="cls-29" d="M7.91,88.8a.48.48,0,0,1,0,1,.48.48,0,1,1,0-1Z"/><path class="cls-29" d="M7.1,90.23a.73.73,0,1,1-.73.73A.73.73,0,0,1,7.1,90.23Z"/><path class="cls-29" d="M7,79.78a9.06,9.06,0,0,1-.73,4.78,4.89,4.89,0,0,1-3.76,2.8h0a1.88,1.88,0,0,0,.89-2.09c-.13-.81-.54-1.55-.7-2.36a4,4,0,0,1,.6-3c.59-.88,1.52-1.5,2.09-2.4A3.78,3.78,0,0,0,6,75.11,16.25,16.25,0,0,1,7,79.78Z"/><path class="cls-29" d="M4.1,64.18a3.12,3.12,0,0,0,2.12,2.1c1,.38,2.16.45,3.2.81a6.31,6.31,0,0,1,3.08,2.3c.39.55.69,1.16,1.08,1.71a3,3,0,0,0,1.56,1.18A7.6,7.6,0,0,1,7.82,71,11,11,0,0,1,4,64.19Z"/><path class="cls-29" d="M13.88,78.42a.45.45,0,1,1-.45.44A.44.44,0,0,1,13.88,78.42Z"/><circle class="cls-29" cx="14.56" cy="75.77" r="0.68"/><circle class="cls-29" cx="11.57" cy="75.77" r="1.52"/><path class="cls-29" d="M30.22,95.76a44.55,44.55,0,0,0,28.22.69,43.55,43.55,0,0,0,22.7-16.51,43,43,0,0,0,3.65-6.12,44,44,0,0,0,2.58-6.65,44,44,0,0,0-8.31-40.5,43.08,43.08,0,0,1,7.65,12.22,43.54,43.54,0,0,1-4.77,41.62,42.37,42.37,0,0,1-4.7,5.57,45.38,45.38,0,0,1-5.55,4.72,42.91,42.91,0,0,1-13,6.37,42.39,42.39,0,0,1-7.12,1.44,42.56,42.56,0,0,1-21.32-2.85Z"/><path class="cls-29" d="M63.55,15.13a44.32,44.32,0,0,0-30.79-1.28A43.58,43.58,0,0,0,8.86,33,42.56,42.56,0,0,0,3.41,47.58a45.19,45.19,0,0,0-.67,7.79c0,1.31.07,2.61.19,3.91s.29,2.6.52,3.88A42.79,42.79,0,0,0,9,77.77a40.49,40.49,0,0,0,9.66,11.5,35.6,35.6,0,0,1-5.24-5A42.7,42.7,0,0,1,8.57,78,43.16,43.16,0,0,1,2.71,63.3a42.06,42.06,0,0,1-.82-7.92,46,46,0,0,1,.64-8A43.58,43.58,0,0,1,8,32.51,44.11,44.11,0,0,1,32.53,13.13a44.58,44.58,0,0,1,15.73-1.88A43.16,43.16,0,0,1,63.55,15.13Z"/><path class="cls-29" d="M66.49,35.91a2.24,2.24,0,0,0-1.39,1.41,11.4,11.4,0,0,0-.36,3.38V71.16a11.31,11.31,0,0,0,.36,3.38A2.19,2.19,0,0,0,66.49,76a12.27,12.27,0,0,0,3.22.5v1.22q-2.82-.18-7.8-.18-5.28,0-7.86.18V76.45a12.27,12.27,0,0,0,3.22-.5,2.19,2.19,0,0,0,1.39-1.41A11.31,11.31,0,0,0,59,71.16V38.25L44.22,78h-1L27.77,38.12V70.55a12,12,0,0,0,.39,3.56,2.79,2.79,0,0,0,1.57,1.69,10.89,10.89,0,0,0,3.62.65v1.22q-2.21-.18-6.26-.18c-2.46,0-4.36.06-5.71.18V76.45a8.65,8.65,0,0,0,3.19-.65A2.69,2.69,0,0,0,26,74.08a12.57,12.57,0,0,0,.37-3.53V40.7A11,11,0,0,0,26,37.32a2.2,2.2,0,0,0-1.38-1.41,12.36,12.36,0,0,0-3.22-.49V34.19c1.35.13,3.25.19,5.71.19,2.13,0,3.87-.06,5.22-.19L45.82,69.75,59,34.38h2.89q5,0,7.8-.19v1.23A12.36,12.36,0,0,0,66.49,35.91Z"/><path class="cls-30" d="M64,21.07A38.13,38.13,0,0,0,9.14,66.13l.38.11A37.79,37.79,0,0,1,64.35,21.63C64.24,21.44,64.13,21.26,64,21.07Z"/><path class="cls-30" d="M81,67.2a37.78,37.78,0,0,1-51.9,21.21c.06.15.12.29.17.44a38.09,38.09,0,0,0,52-21.51Z"/><path class="cls-30" d="M29.76,94.74a7.64,7.64,0,0,1-.17.77A5.58,5.58,0,0,1,27,99.06a4.27,4.27,0,0,1-4.91-.83,1.74,1.74,0,0,0,1.24.44,1.55,1.55,0,0,0,1.44-1.35,2,2,0,0,0-.71-1.57c-1.31-1.28-3.31-1.48-5.14-1.51s-3.78,0-5.35-.91a4.64,4.64,0,0,1-1.76-6,7.29,7.29,0,0,1-1.73,1.29,1,1,0,0,1-1,.11,3.49,3.49,0,0,0,1.6-2.27,8.76,8.76,0,0,0-.05-5.07c.17.45,2.1,5.38,9.48,8.87-3.63-2.66-6.51-6.44-9.16-10.08h0a5.21,5.21,0,0,0,3.48,2.33c1.63.13,3.27-.2,4.91-.23a6,6,0,0,1,4.53,1.5,5.64,5.64,0,0,0-3.37.27A5.68,5.68,0,0,0,18,86.37h0A6.76,6.76,0,0,1,23.74,85a7.74,7.74,0,0,1,5,3.65A9.08,9.08,0,0,1,29.76,94.74Z"/><path class="cls-30" d="M87.16,30.75l.08.07C86.1,32.16,85.7,34.25,85.39,36h0a25.73,25.73,0,0,0-8.6-11.85l0,0-.09-.1,0,0a55.84,55.84,0,0,1,7.93,12.36L84.32,36a29.7,29.7,0,0,0-4.76-5.52,9.93,9.93,0,0,0-2.49-1.89,4.24,4.24,0,0,0-3-.36,2.78,2.78,0,0,0-2,2.09l-.11,0a4.87,4.87,0,0,1,1.79-5.86h0c-2.57.43-5.43.2-7.42-1.49A7.93,7.93,0,0,1,63.8,17a12.35,12.35,0,0,1,.14-2,23.84,23.84,0,0,1,1.21-4.43,52.49,52.49,0,0,0,2.11-6.27c.29-1.28.37-2.8-.5-3.76L66.84.5a10.51,10.51,0,0,1,7.25,7.55,23.53,23.53,0,0,1,.43,4.44,14.92,14.92,0,0,0,.67,4.41,5.73,5.73,0,0,0,2.69,3.29A10.22,10.22,0,0,1,78,10.94a4.94,4.94,0,0,0,1,3.33,15.43,15.43,0,0,0,3.06,2.92,11.14,11.14,0,0,1,2.89,3.08,4.37,4.37,0,0,1,.43,3.45,4.88,4.88,0,0,1,6.39.52,7.7,7.7,0,0,0-5.76,3C84.67,29,84.58,32,85,34.14a8.11,8.11,0,0,1,.42-2.5C85.67,31,86.51,30.83,87.16,30.75Z"/><path class="cls-30" d="M85,15.29a1.06,1.06,0,0,1,1.09,1,1.07,1.07,0,1,1-1.09-1Z"/><path class="cls-30" d="M83.65,13.48a.33.33,0,1,1-.32.33A.34.34,0,0,1,83.65,13.48Z"/><path class="cls-30" d="M82.54,14.51a.54.54,0,0,1,.54.52.54.54,0,0,1-1.07,0A.54.54,0,0,1,82.54,14.51Z"/><path class="cls-30" d="M66.62,27.75a1,1,0,1,1-1,1A1,1,0,0,1,66.62,27.75Z"/><circle class="cls-30" cx="69.49" cy="28.81" r="0.83"/><path class="cls-30" d="M68.87,25.73a.63.63,0,0,1,.63.61.62.62,0,0,1-1.24,0A.63.63,0,0,1,68.87,25.73Z"/><path class="cls-30" d="M91,31.54a10.66,10.66,0,0,0-2.66,10.55L86.9,37.55a4,4,0,0,1-.24-2.66c.32-.86,1.18-1.4,1.63-2.2.59-1,.38-2.38.82-3.5A4.09,4.09,0,0,1,93.66,27a7.75,7.75,0,0,1,4.45,3l0,.05a2.05,2.05,0,0,0-3,1.42,4.94,4.94,0,0,0,.31,2.17,2.76,2.76,0,0,1-.09,2.15c-.54.87-1.73,1-2.71,1.27a5.55,5.55,0,0,0-3.52,3.27,1.72,1.72,0,0,0-.07.21,14.76,14.76,0,0,1,2.13-8.89Z"/><path class="cls-30" d="M86.69,43.81A11.78,11.78,0,0,1,86.75,47a5.19,5.19,0,0,0-4-3.94c-.8-.15-1.63-.1-2.44-.22a2.86,2.86,0,0,1-2.08-1.16c-.32-.54-.38-1.25-.84-1.68a1.61,1.61,0,0,0-1.28-.37,4.43,4.43,0,0,0-1.18.34,4,4,0,0,1,7.13-1.63,9.82,9.82,0,0,0,1.1,1.5,11.48,11.48,0,0,0,1.57.88A4.61,4.61,0,0,1,86.69,43.81Z"/><path class="cls-30" d="M81.16,64.94a2.66,2.66,0,0,1,5-.41h0A3.42,3.42,0,0,0,84.82,62c-.81-.69-1.79-1.17-2.61-1.87a3.34,3.34,0,0,1-1.36-2.67,6.44,6.44,0,0,0,2.63.47,4.37,4.37,0,0,1,2.79.86h0c-.25-1.29-1.59-2.05-2.84-2.45s-2.64-.69-3.53-1.66a4.9,4.9,0,0,1-.93-3.7,24.4,24.4,0,0,0,.3-3.9,3.5,3.5,0,0,0-2-3.09v-.22a11.41,11.41,0,0,1,10.17,6.5,16.63,16.63,0,0,1,1.23,7.34,32.14,32.14,0,0,1-1.83,9.85h0a19.67,19.67,0,0,1-2.59,5.48,4.09,4.09,0,0,1-.41-2.36c.07-.84.25-1.66.29-2.49a3.57,3.57,0,0,0-.64-2.37,1.88,1.88,0,0,0-2.23-.61Z"/><path class="cls-30" d="M96.68,59.7a1.18,1.18,0,0,1-.35,1.18l0-.07a2.22,2.22,0,0,0-2.43-.87,5.14,5.14,0,0,0-3.19,2.35,12.27,12.27,0,0,0-1.6,3.17h0a39.16,39.16,0,0,0,.15-20.33,14.92,14.92,0,0,1,2.51,4.64l.08,0a10.33,10.33,0,0,1,4-11.71h0c-.85,2-.41,4.33,0,6.5s.66,4.62-.53,6.51c-.92,1.47-2.66,2.47-3,4.17l.21,0a4.11,4.11,0,0,1,3.49-1.86v0a12.85,12.85,0,0,0-3,4.31l.07,0a2.74,2.74,0,0,1,2.34.1A2.71,2.71,0,0,1,96.68,59.7Z"/><path class="cls-30" d="M35,93.44a1.16,1.16,0,1,1,0,2.31,1.16,1.16,0,0,1,0-2.31Z"/><path class="cls-30" d="M33,90.77a.57.57,0,0,1,.58.58.58.58,0,1,1-1.16,0A.57.57,0,0,1,33,90.77Z"/><path class="cls-30" d="M32,92.68a.94.94,0,1,1-.95.94A.94.94,0,0,1,32,92.68Z"/><circle class="cls-30" cx="9.19" cy="91.4" r="0.66"/><path class="cls-30" d="M7.91,88.8a.48.48,0,0,1,0,1,.48.48,0,1,1,0-1Z"/><path class="cls-30" d="M7.1,90.23a.73.73,0,1,1-.73.73A.73.73,0,0,1,7.1,90.23Z"/><path class="cls-30" d="M7,79.78a9.06,9.06,0,0,1-.73,4.78,4.89,4.89,0,0,1-3.76,2.8h0a1.88,1.88,0,0,0,.89-2.09c-.13-.81-.54-1.55-.7-2.36a4,4,0,0,1,.6-3c.59-.88,1.52-1.5,2.09-2.4A3.78,3.78,0,0,0,6,75.11,16.25,16.25,0,0,1,7,79.78Z"/><path class="cls-30" d="M4.1,64.18a3.12,3.12,0,0,0,2.12,2.1c1,.38,2.16.45,3.2.81a6.31,6.31,0,0,1,3.08,2.3c.39.55.69,1.16,1.08,1.71a3,3,0,0,0,1.56,1.18A7.6,7.6,0,0,1,7.82,71,11,11,0,0,1,4,64.19Z"/><path class="cls-30" d="M13.88,78.42a.45.45,0,1,1-.45.44A.44.44,0,0,1,13.88,78.42Z"/><circle class="cls-30" cx="14.56" cy="75.77" r="0.68"/><circle class="cls-30" cx="11.57" cy="75.77" r="1.52"/><path class="cls-30" d="M30.22,95.76a44.55,44.55,0,0,0,28.22.69,43.55,43.55,0,0,0,22.7-16.51,43,43,0,0,0,3.65-6.12,44,44,0,0,0,2.58-6.65,44,44,0,0,0-8.31-40.5,43.08,43.08,0,0,1,7.65,12.22,43.54,43.54,0,0,1-4.77,41.62,42.37,42.37,0,0,1-4.7,5.57,45.38,45.38,0,0,1-5.55,4.72,42.91,42.91,0,0,1-13,6.37,42.39,42.39,0,0,1-7.12,1.44,42.56,42.56,0,0,1-21.32-2.85Z"/><path class="cls-30" d="M63.55,15.13a44.32,44.32,0,0,0-30.79-1.28A43.58,43.58,0,0,0,8.86,33,42.56,42.56,0,0,0,3.41,47.58a45.19,45.19,0,0,0-.67,7.79c0,1.31.07,2.61.19,3.91s.29,2.6.52,3.88A42.79,42.79,0,0,0,9,77.77a40.49,40.49,0,0,0,9.66,11.5,35.6,35.6,0,0,1-5.24-5A42.7,42.7,0,0,1,8.57,78,43.16,43.16,0,0,1,2.71,63.3a42.06,42.06,0,0,1-.82-7.92,46,46,0,0,1,.64-8A43.58,43.58,0,0,1,8,32.51,44.11,44.11,0,0,1,32.53,13.13a44.58,44.58,0,0,1,15.73-1.88A43.16,43.16,0,0,1,63.55,15.13Z"/><path class="cls-30" d="M66.49,35.91a2.24,2.24,0,0,0-1.39,1.41,11.4,11.4,0,0,0-.36,3.38V71.16a11.31,11.31,0,0,0,.36,3.38A2.19,2.19,0,0,0,66.49,76a12.27,12.27,0,0,0,3.22.5v1.22q-2.82-.18-7.8-.18-5.28,0-7.86.18V76.45a12.27,12.27,0,0,0,3.22-.5,2.19,2.19,0,0,0,1.39-1.41A11.31,11.31,0,0,0,59,71.16V38.25L44.22,78h-1L27.77,38.12V70.55a12,12,0,0,0,.39,3.56,2.79,2.79,0,0,0,1.57,1.69,10.89,10.89,0,0,0,3.62.65v1.22q-2.21-.18-6.26-.18c-2.46,0-4.36.06-5.71.18V76.45a8.65,8.65,0,0,0,3.19-.65A2.69,2.69,0,0,0,26,74.08a12.57,12.57,0,0,0,.37-3.53V40.7A11,11,0,0,0,26,37.32a2.2,2.2,0,0,0-1.38-1.41,12.36,12.36,0,0,0-3.22-.49V34.19c1.35.13,3.25.19,5.71.19,2.13,0,3.87-.06,5.22-.19L45.82,69.75,59,34.38h2.89q5,0,7.8-.19v1.23A12.36,12.36,0,0,0,66.49,35.91Z"/></svg>